<?xml version="1.0" ?><svg xmlns="http://www.w3.org/2000/svg" xmlns:xlink="http://www.w3.org/1999/xlink" version="1.1" id="Layer_1" viewBox="0 0 24 24" enable-background="new 0 0 24 24" xml:space="preserve"><g><path fill="#140F0F" d="M18.56,8.38L18.39,8c-0.16-0.35-0.51-0.59-0.9-0.59l-0.7-0.01l-0.64-0.9c-0.13-0.18-0.34-0.29-0.56-0.29   H8.41c-0.19,0-0.38,0.08-0.51,0.23L7.03,7.42H6.5c-0.2,0-0.4,0.06-0.57,0.18c-0.17,0.12-0.3,0.28-0.37,0.47L5.43,8.41   C5.37,8.58,5.39,8.76,5.49,8.91c0.1,0.14,0.27,0.23,0.44,0.23h0.92l1.72,9.95c0.07,0.4,0.42,0.7,0.83,0.7h5.39   c0.2,0,0.4-0.07,0.55-0.2c0.15-0.13,0.25-0.32,0.28-0.51l1.45-10.08c0.01-0.05-0.01-0.1-0.04-0.14C17,8.81,16.95,8.79,16.9,8.79   H7.75c-0.1,0-0.17,0.08-0.17,0.17s0.08,0.17,0.17,0.17h8.94l-1.42,9.88c-0.03,0.24-0.24,0.42-0.49,0.42H9.4   c-0.24,0-0.44-0.17-0.48-0.41L7.16,8.94C7.15,8.85,7.08,8.79,6.99,8.79H5.93c-0.06,0-0.12-0.03-0.15-0.08   C5.74,8.66,5.73,8.6,5.76,8.54l0.13-0.35c0.1-0.25,0.34-0.42,0.61-0.42h0.61h8.54c0.1,0,0.17-0.08,0.17-0.17   c0-0.1-0.08-0.17-0.17-0.17H7.5l0.67-0.74c0.06-0.07,0.16-0.11,0.25-0.11h7.17c0.11,0,0.21,0.05,0.28,0.14l0.69,0.97   c0.03,0.05,0.08,0.07,0.14,0.07l0.79,0.01c0.25,0,0.48,0.15,0.59,0.39l0.17,0.37c0.03,0.06,0.02,0.12-0.01,0.18   c-0.03,0.05-0.09,0.09-0.16,0.09l-0.3,0.01c-0.1,0-0.17,0.08-0.17,0.18c0,0.1,0.08,0.17,0.18,0.17l0.3-0.01   c0.18,0,0.35-0.1,0.44-0.25C18.62,8.73,18.63,8.54,18.56,8.38z"/><path fill="#140F0F" d="M8.27,9.84C8.26,9.74,8.17,9.68,8.07,9.7C7.98,9.72,7.91,9.81,7.93,9.9l0.3,1.7   c0.01,0.08,0.09,0.14,0.17,0.14c0.01,0,0.02,0,0.03,0c0.09-0.02,0.16-0.11,0.14-0.2L8.27,9.84z"/><path fill="#140F0F" d="M8.46,11.88c-0.09,0.02-0.16,0.11-0.14,0.2l0.04,0.22c0.01,0.08,0.09,0.14,0.17,0.14c0.01,0,0.02,0,0.03,0   c0.09-0.02,0.16-0.11,0.14-0.2l-0.04-0.22C8.64,11.93,8.55,11.86,8.46,11.88z"/><path fill="#C43535" d="M14.3,18.85H9.8c-0.19,0-0.36-0.14-0.39-0.33l-0.8-5.16l0,0c-0.02-0.15,0.02-0.31,0.12-0.43   c0.1-0.12,0.25-0.19,0.41-0.19h5.8c0.16,0,0.3,0.07,0.41,0.19c0.1,0.12,0.15,0.27,0.12,0.43l-0.79,5.16   C14.66,18.71,14.49,18.85,14.3,18.85z M8.96,13.31l0.8,5.16c0,0.02,0.02,0.03,0.04,0.03h4.5c0.02,0,0.04-0.01,0.04-0.04l0.79-5.16   c0.01-0.05-0.01-0.11-0.04-0.15c-0.04-0.04-0.09-0.06-0.14-0.06h-5.8c-0.06,0-0.11,0.02-0.14,0.07C8.97,13.2,8.95,13.25,8.96,13.31   L8.96,13.31z"/><path fill="#C43535" d="M11.95,17.32C11.95,17.32,11.94,17.32,11.95,17.32c-0.1,0-0.18-0.09-0.17-0.18L12.35,4.4   c0-0.09,0.08-0.17,0.17-0.17l2.25-0.02c0,0,0,0,0,0c0.1,0,0.17,0.08,0.17,0.17c0,0.1-0.08,0.17-0.17,0.18l-2.09,0.02l-0.57,12.57   C12.12,17.25,12.04,17.32,11.95,17.32z"/></g></svg>